{
  "accessors": [
    {
      "bufferView": 2,
      "componentType": 5126,
      "count": 606,
      "max": [
        1.0060000419616699,
        1.0007400512695312,
        1.9672600030899048
      ],
      "min": [
        -1.0056600570678711,
        -0.99163997173309326,
        0.0065700002014636993
      ],
      "type": "VEC3"
    },
    {
      "bufferView": 2,
      "byteOffset": 7272,
      "componentType": 5126,
      "count": 606,
      "max": [
        0.99730032682418823,
        0.9999653697013855,
        0.99933451414108276
      ],
      "min": [
        -0.99629759788513184,
        -0.99781298637390137,
        -1
      ],
      "type": "VEC3"
    },
    {
      "bufferView": 3,
      "componentType": 5126,
      "count": 606,
      "max": [
        1,
        1,
        0.99629455804824829,
        1
      ],
      "min": [
        -0.99446707963943481,
        -0.99999982118606567,
        -0.99730020761489868,
        1
      ],
      "type": "VEC4"
    },
    {
      "bufferView": 1,
      "componentType": 5126,
      "count": 606,
      "max": [
        0.68686002492904663,
        0.99990999698638916
      ],
      "min": [
        9.0000001364387572e-05,
        9.0000001364387572e-05
      ],
      "type": "VEC2"
    },
    {
      "bufferView": 0,
      "componentType": 5125,
      "count": 3276,
      "max": [
        605
      ],
      "min": [
        0
      ],
      "type": "SCALAR"
    }
  ],
  "asset": {
    "extras": {
      "author": "brianlandes (https://sketchfab.com/brianlandes)",
      "license": "CC-BY-4.0 (http://creativecommons.org/licenses/by/4.0/)",
      "source": "https://sketchfab.com/models/3809ed97320f47f7ab721b5262a59bc7",
      "title": "Green Apple"
    },
    "generator": "Sketchfab-3.18.2",
    "version": "2.0"
  },
  "bufferViews": [
    {
      "buffer": 0,
      "byteLength": 13104,
      "byteOffset": 0,
      "name": "floatBufferViews",
      "target": 34963
    },
    {
      "buffer": 0,
      "byteLength": 4848,
      "byteOffset": 13104,
      "byteStride": 8,
      "name": "floatBufferViews",
      "target": 34962
    },
    {
      "buffer": 0,
      "byteLength": 14544,
      "byteOffset": 17952,
      "byteStride": 12,
      "name": "floatBufferViews",
      "target": 34962
    },
    {
      "buffer": 0,
      "byteLength": 9696,
      "byteOffset": 32496,
      "byteStride": 16,
      "name": "floatBufferViews",
      "target": 34962
    }
  ],
  "buffers": [
    {
      "byteLength": 42192,
      "uri": "scene.bin"
    }
  ],
  "images": [
    {
      "uri": "textures/AppleMaterial_baseColor.png"
    },
    {
      "uri": "textures/AppleMaterial_normal.png"
    }
  ],
  "materials": [
    {
      "doubleSided": true,
      "emissiveFactor": [
        0,
        0,
        0
      ],
      "name": "AppleMaterial",
      "normalTexture": {
        "index": 1,
        "scale": 1,
        "texCoord": 0
      },
      "pbrMetallicRoughness": {
        "baseColorFactor": [
          1,
          1,
          1,
          1
        ],
        "baseColorTexture": {
          "index": 0,
          "texCoord": 0
        },
        "metallicFactor": 0,
        "roughnessFactor": 0.59999999999999998
      }
    }
  ],
  "meshes": [
    {
      "name": "Cube",
      "primitives": [
        {
          "attributes": {
            "NORMAL": 1,
            "POSITION": 0,
            "TANGENT": 2,
            "TEXCOORD_0": 3
          },
          "indices": 4,
          "material": 0,
          "mode": 4
        }
      ]
    }
  ],
  "nodes": [
    {
      "children": [
        1
      ],
      "name": "RootNode (gltf orientation matrix)",
      "rotation": [
        -0.70710678118654746,
        -0,
        -0,
        0.70710678118654757
      ]
    },
    {
      "children": [
        2
      ],
      "name": "RootNode (model correction matrix)"
    },
    {
      "children": [
        3,
        5
      ],
      "name": "Root"
    },
    {
      "children": [
        4
      ],
      "matrix": [
        7.581360000000001,
        0,
        0,
        0,
        0,
        7.581360000000001,
        0,
        0,
        0,
        0,
        7.581360000000001,
        0,
        0,
        0,
        0,
        1
      ],
      "name": "Cube"
    },
    {
      "mesh": 0,
      "name": "Cube"
    },
    {
      "children": [
        6
      ],
      "matrix": [
        1,
        0,
        -0,
        0,
        0,
        0.90035999999999994,
        0.43514000000000003,
        0,
        0,
        -0.43514000000000003,
        0.90035999999999994,
        0,
        0,
        -31.780999999999999,
        74.560560000000009,
        1
      ],
      "name": "Hemi"
    },
    {
      "name": "Hemi"
    }
  ],
  "samplers": [
    {
      "magFilter": 9729,
      "minFilter": 9987,
      "wrapS": 10497,
      "wrapT": 10497
    }
  ],
  "scene": 0,
  "scenes": [
    {
      "name": "OSG_Scene",
      "nodes": [
        0
      ]
    }
  ],
  "textures": [
    {
      "sampler": 0,
      "source": 0
    },
    {
      "sampler": 0,
      "source": 1
    }
  ]
}

